<svg width="328" height="130" version="1.1" xmlns="http://www.w3.org/2000/svg" desc="Created with imagetracer.js version 1.2.6" ><path fill="rgb(0,0,0)" stroke="rgb(0,0,0)" stroke-width="1" opacity="0" d="M 0 0 L 140 0.5 L 102.5 4 L 66.5 12 Q 45 18 27.5 28 L 9 42.5 L 2 52.5 L 0.5 58 L 0 0 Z " /><path fill="rgb(0,0,0)" stroke="rgb(0,0,0)" stroke-width="1" opacity="0" d="M 171.5 0 L 328 0 L 328 56.5 L 327 56.5 Q 323 44 313.5 37 L 304.5 31 L 304 33 Q 311.8 36.3 317 43.5 L 324 55.5 L 325 66.5 Q 320.5 83.5 307.5 92 L 287.5 104 L 257.5 115 L 226.5 122 L 214 123 L 214 126 L 220.5 126 L 255.5 119 L 287.5 108 Q 308.5 99.5 322 83.5 L 327.5 72 L 328 130 L 170.5 130 L 169.5 129 L 152.5 129 L 151.5 128 L 140.5 128 L 139.5 127 L 117.5 125 L 85.5 118 L 57.5 108 Q 37.5 99.5 24 84.5 L 17 70.5 L 17 59.5 Q 20.8 47.3 29.5 40 Q 42.8 28.3 60.5 21 L 90.5 11 L 126.5 4 L 143.5 3 L 144.5 2 L 156.5 2 L 157.5 1 L 170.5 1 L 171.5 0 Z M 295 23 L 292 26 Q 291 31 293 33 L 296 34 L 302 33 Q 304 31 303 26 Q 302 22 295 23 Z M 38 41 L 35 42 L 38 48 L 38 69 L 35 73 L 37 74 L 62 74 L 64 69 L 63 66 L 60 66 L 55 70 Q 50 71 49 69 L 47 69 L 47 59 L 55 59 L 56 60 L 59 59 Q 60 54 58 53 L 54 54 L 47 54 L 47 46 L 56 46 Q 56 50 61 49 Q 63 48 62 44 L 60 41 L 38 41 Z M 99 41 L 96 42 Q 95 46 98 45 L 99 48 L 99 68 L 96 72 L 98 74 L 109 74 L 110 73 L 108 70 L 108 58 L 120 58 L 120 68 L 117 72 L 119 74 L 130 74 L 131 73 L 129 70 L 129 46 Q 132 46 131 42 L 129 41 Q 120 40 117 42 Q 116 46 119 45 L 120 48 L 120 54 L 108 54 L 108 46 Q 111 46 110 42 Q 107 40 99 41 Z M 135 41 L 132 42 Q 131 45 134 47 L 134 70 L 132 70 L 132 73 L 134 74 L 158 74 L 160 71 L 162 74 Q 168 76 170 73 Q 171 69 168 70 L 167 68 L 168 52 L 182 73 Q 183 75 188 74 L 189 73 L 189 47 L 191 45 Q 194 46 192 42 L 190 41 L 181 42 L 184 47 L 184 59 Q 178 48 170 41 Q 162 40 159 42 L 159 44 L 158 42 L 156 41 L 135 41 Z M 195 41 L 193 43 L 195 47 L 195 70 L 193 72 L 195 74 L 206 74 L 207 73 L 204 69 L 204 47 L 206 43 L 205 41 L 195 41 Z M 225 41 L 214 45 L 208 54 Q 206 63 210 68 L 216 73 Q 219 76 227 75 L 233 80 Q 239 82 241 79 Q 244 80 242 76 L 241 74 L 232 74 L 236 72 L 242 63 Q 244 52 239 48 L 232 42 L 225 41 Z M 246 41 L 243 44 L 246 47 L 246 66 L 247 69 Q 250 73 257 74 Q 265 75 269 72 L 273 67 L 273 47 L 275 45 Q 277 46 276 42 L 274 41 L 269 42 Q 264 41 266 45 L 269 47 Q 271 61 267 68 L 265 69 Q 257 71 255 66 L 255 46 Q 258 46 257 42 Q 254 40 246 41 Z M 280 41 L 277 42 Q 276 45 279 47 L 279 70 L 277 73 L 279 74 L 304 74 L 305 66 L 302 66 L 297 70 Q 291 71 289 69 Q 287 66 288 59 L 297 59 L 298 60 L 300 60 L 300 53 L 288 54 L 288 48 L 290 46 L 298 46 Q 298 50 303 49 Q 305 48 304 44 L 301 41 L 280 41 Z M 77 42 L 73 44 Q 67 48 65 55 Q 63 64 67 69 Q 70 74 78 76 Q 86 77 91 74 Q 96 72 95 66 L 92 66 L 86 71 L 79 70 L 74 63 Q 73 53 77 49 Q 79 45 86 46 Q 90 48 90 53 Q 94 54 95 52 L 94 46 Q 89 40 77 42 Z M 44 81 Q 45 88 42 91 L 49 90 L 53 91 L 52 89 L 55 83 L 55 81 L 51 81 L 49 86 L 48 83 L 44 81 Z M 79 81 L 77 83 Q 78 85 75 84 L 75 87 L 72 89 L 73 83 L 69 85 L 70 91 L 74 90 L 76 91 L 78 90 L 77 88 L 78 85 L 80 86 L 79 90 Q 78 92 81 91 L 83 86 L 84 86 L 83 90 Q 84 92 86 90 Q 88 91 87 88 L 85 88 L 86 85 L 84 83 L 80 84 Q 81 80 79 81 Z M 103 81 L 103 84 L 102 83 L 97 84 L 97 86 L 96 90 Q 95 92 98 91 L 99 88 L 102 86 L 103 86 L 102 90 Q 103 92 105 90 L 108 91 L 110 91 L 112 90 L 111 84 L 108 83 L 105 85 L 106 83 L 103 81 Z M 151 81 Q 148 82 150 84 L 149 86 Q 148 92 151 91 Q 153 90 151 89 L 152 84 Q 153 80 151 81 Z M 166 81 L 164 85 L 164 91 L 167 90 L 166 84 L 169 86 L 168 91 Q 171 92 170 88 L 172 87 L 171 89 L 173 91 L 175 90 L 174 85 Q 173 82 172 84 L 166 81 Z M 184 81 Q 181 82 183 84 L 179 84 Q 175 85 176 90 L 179 91 L 181 90 L 183 91 L 189 90 L 191 90 L 196 91 Q 198 87 200 91 L 202 90 Q 203 87 200 88 L 202 85 L 201 82 L 198 84 L 196 83 L 194 84 Q 191 83 192 87 L 196 88 L 196 89 L 191 88 L 191 87 Q 192 83 189 84 L 186 89 L 186 88 L 185 83 Q 186 80 184 81 Z M 212 81 L 210 84 L 207 83 L 203 85 L 205 91 L 206 88 L 209 86 L 210 86 L 209 90 Q 210 92 212 90 L 215 91 L 217 91 L 219 90 L 218 88 L 219 85 L 216 83 L 213 85 L 213 84 L 212 81 Z M 248 81 L 248 83 L 245 85 Q 246 82 244 83 L 242 83 L 240 84 L 240 86 L 239 89 Q 238 92 241 91 L 242 87 L 244 86 L 243 91 L 246 90 L 248 91 Q 250 90 248 89 L 248 84 Q 252 86 251 83 L 248 81 Z M 255 81 L 253 84 Q 249 85 252 87 L 251 92 L 248 93 Q 247 96 251 95 L 254 89 Q 253 85 256 86 L 255 91 L 258 92 Q 260 91 258 90 L 261 91 L 263 90 L 268 91 L 270 91 L 272 90 L 271 84 L 268 83 Q 266 87 264 83 Q 259 83 259 86 L 259 85 Q 261 79 255 81 Z M 281 81 L 279 82 L 279 84 Q 274 83 273 87 Q 272 90 275 91 L 278 90 L 280 91 L 285 90 Q 287 89 286 84 L 284 83 L 281 81 Z M 58 83 L 55 84 L 54 87 Q 53 90 56 91 L 58 90 L 60 91 L 64 90 L 63 92 L 63 93 L 67 93 L 66 91 L 68 84 L 65 83 L 62 85 L 58 83 Z M 91 83 Q 87 84 88 90 L 91 91 L 93 91 L 95 90 L 94 88 L 95 85 L 91 83 Z M 120 83 L 118 84 L 118 86 L 117 88 Q 118 92 115 91 L 115 93 L 120 93 L 119 91 L 124 89 L 127 91 L 129 91 L 131 90 L 130 84 L 128 83 L 125 85 L 122 83 L 120 83 Z M 134 83 Q 131 84 133 86 L 132 88 Q 131 92 134 91 L 136 86 L 138 91 L 141 90 Q 142 92 143 90 L 142 88 L 143 84 L 141 83 L 139 84 L 134 83 Z M 157 83 L 153 86 Q 152 90 155 91 L 158 90 Q 159 92 160 90 L 159 88 L 160 84 L 157 83 Z M 225 83 L 223 84 L 223 86 L 222 88 Q 223 92 220 91 L 220 93 L 225 93 L 224 91 L 228 90 L 230 86 L 227 83 L 225 83 Z M 234 83 Q 230 84 231 90 L 234 91 L 236 91 L 238 90 L 237 84 L 234 83 Z M 290 83 L 288 85 L 289 91 L 292 86 L 292 90 L 295 91 L 297 91 L 299 90 L 298 84 L 296 83 L 294 84 L 290 83 Z " /><path fill="rgb(0,0,0)" stroke="rgb(0,0,0)" stroke-width="1" opacity="0" d="M 294.5 26 L 295 29.5 L 294 29.5 L 294.5 26 Z " /><path fill="rgb(0,0,0)" stroke="rgb(0,0,0)" stroke-width="1" opacity="0" d="M 300.5 26 L 301 29.5 L 299 28.5 L 300.5 26 Z " /><path fill="rgb(0,0,0)" stroke="rgb(0,0,0)" stroke-width="1" opacity="0" d="M 159 45 L 163 47.5 L 163 68.5 L 161.5 70 L 160 70 L 160 66 L 156.5 66 Q 154.6 71.1 146.5 70 L 143 67.5 L 143 59 L 151.5 59 L 155 60 L 155 53 L 151.5 53 L 150.5 54 L 143 54 L 143 47.5 L 144.5 46 L 152.5 46 Q 153 49.5 157.5 49 L 159 45 Z " /><path fill="rgb(0,0,0)" stroke="rgb(0,0,0)" stroke-width="1" opacity="0" d="M 222.5 46 Q 229.8 44.8 231 49.5 Q 233.9 54.1 233 62.5 L 228.5 70 L 227 64 L 223 65.5 L 222.5 70 L 218 65.5 L 217 54.5 Q 218.3 48.8 222.5 46 Z " /><path fill="rgb(0,0,0)" stroke="rgb(0,0,0)" stroke-width="1" opacity="0" d="M 0.5 73 Q 5.2 86.3 15.5 94 L 40.5 109 L 68.5 119 L 107.5 127 L 135 129.5 L 0 130 L 0.5 73 Z " /><path fill="rgb(0,0,0)" stroke="rgb(0,0,0)" stroke-width="1" opacity="0" d="M 255.5 83 L 256.5 85 Q 253.7 85.7 255.5 83 Z " /><path fill="rgb(0,0,0)" stroke="rgb(0,0,0)" stroke-width="1" opacity="0" d="M 57 85 L 59 85.5 L 56.5 89 L 56 87.5 L 57 85 Z " /><path fill="rgb(0,0,0)" stroke="rgb(0,0,0)" stroke-width="1" opacity="0" d="M 64.5 85 L 65 86.5 L 63 87.5 L 64.5 85 Z " /><path fill="rgb(0,0,0)" stroke="rgb(0,0,0)" stroke-width="1" opacity="0" d="M 91.5 85 L 92 87.5 L 90 88.5 L 91.5 85 Z " /><path fill="rgb(0,0,0)" stroke="rgb(0,0,0)" stroke-width="1" opacity="0" d="M 108.5 85 L 109 86.5 L 107.5 89 L 107 86.5 L 108.5 85 Z " /><path fill="rgb(0,0,0)" stroke="rgb(0,0,0)" stroke-width="1" opacity="0" d="M 121.5 85 L 122 88 Q 119.3 89.1 120 86.5 L 121.5 85 Z " /><path fill="rgb(0,0,0)" stroke="rgb(0,0,0)" stroke-width="1" opacity="0" d="M 127.5 85 L 128 86.5 L 126.5 89 L 126 86.5 L 127.5 85 Z " /><path fill="rgb(0,0,0)" stroke="rgb(0,0,0)" stroke-width="1" opacity="0" d="M 139 85 L 141 85.5 L 138.5 89 L 138 87.5 L 139 85 Z " /><path fill="rgb(0,0,0)" stroke="rgb(0,0,0)" stroke-width="1" opacity="0" d="M 156.5 85 L 157 87.5 L 155 88.5 L 156.5 85 Z " /><path fill="rgb(0,0,0)" stroke="rgb(0,0,0)" stroke-width="1" opacity="0" d="M 215.5 85 L 216 87.5 L 214 88.5 L 215.5 85 Z " /><path fill="rgb(0,0,0)" stroke="rgb(0,0,0)" stroke-width="1" opacity="0" d="M 226.5 85 L 227 87.5 L 225 88.5 L 226.5 85 Z " /><path fill="rgb(0,0,0)" stroke="rgb(0,0,0)" stroke-width="1" opacity="0" d="M 234.5 85 L 235 87.5 L 233 88.5 L 234.5 85 Z " /><path fill="rgb(0,0,0)" stroke="rgb(0,0,0)" stroke-width="1" opacity="0" d="M 262.5 85 L 264 87.5 L 261 89 L 262.5 85 Z " /><path fill="rgb(0,0,0)" stroke="rgb(0,0,0)" stroke-width="1" opacity="0" d="M 268.5 85 L 269 86.5 L 267 87.5 L 268.5 85 Z " /><path fill="rgb(0,0,0)" stroke="rgb(0,0,0)" stroke-width="1" opacity="0" d="M 282 85 Q 285 83.8 284 87.5 Q 282.5 90.5 281 87.5 L 282 85 Z " /><path fill="rgb(0,0,0)" stroke="rgb(0,0,0)" stroke-width="1" opacity="0" d="M 295.5 85 L 296 87.5 L 294 88.5 L 295.5 85 Z " /><path fill="rgb(0,0,0)" stroke="rgb(0,0,0)" stroke-width="1" opacity="0" d="M 179 86 L 182 86.5 L 179 88.5 L 179 86 Z " /><path fill="rgb(0,0,0)" stroke="rgb(0,0,0)" stroke-width="1" opacity="0" d="M 276.5 86 L 279 86.5 L 275 89 L 276.5 86 Z " /><path fill="rgb(255,255,255)" stroke="rgb(255,255,255)" stroke-width="1" opacity="0.7529411764705882" d="M 140.5 0 L 171 0.5 L 126.5 4 L 83.5 13 L 60.5 21 L 44.5 29 L 26 43.5 L 18 56.5 Q 15.6 61.6 17 70.5 Q 21.6 84.9 32.5 93 L 57.5 108 L 85.5 118 L 111.5 124 L 130.5 126 L 131.5 127 L 170 129.5 L 135.5 130 L 134.5 129 L 123.5 129 L 122.5 128 L 114.5 128 L 113.5 127 L 89.5 124 L 68.5 119 L 50.5 113 Q 24.1 103.9 7 85.5 L 0 72.5 L 0 58.5 Q 3.8 46.3 12.5 39 L 27.5 28 Q 45 18 66.5 12 L 102.5 4 L 125.5 2 L 126.5 1 L 139.5 1 L 140.5 0 Z " /><path fill="rgb(255,255,255)" stroke="rgb(255,255,255)" stroke-width="1" opacity="0.7529411764705882" d="M 294.5 23 Q 301.5 21.5 303 25.5 Q 303.6 30.9 302 33 L 295.5 34 L 293 33 Q 291.4 30.9 292 25.5 L 294.5 23 Z M 295 26 L 294 30 L 295 30 L 295 26 Z M 301 26 L 299 29 L 301 30 L 301 26 Z " /><path fill="rgb(255,255,255)" stroke="rgb(255,255,255)" stroke-width="1" opacity="0.7529411764705882" d="M 304.5 31 Q 314.3 36.3 321 44.5 L 328 57.5 L 328 71.5 Q 323.3 85.3 312.5 93 Q 297.6 105.1 277.5 112 L 247.5 121 L 220.5 126 L 214 126 L 214 123 L 220.5 123 L 257.5 115 L 287.5 104 Q 306.7 95.7 319 80.5 Q 325.4 73.4 325 59.5 Q 320.8 44.2 309.5 36 L 304 33 L 304.5 31 Z " /><path fill="rgb(255,255,255)" stroke="rgb(255,255,255)" stroke-width="1" opacity="0.7529411764705882" d="M 37.5 41 L 59.5 41 L 62 43.5 Q 63 48 60.5 49 Q 56 49.5 55.5 46 L 47 46 L 47 54 L 53.5 54 L 57.5 53 Q 60 54 59 58.5 L 55.5 60 L 54.5 59 L 47 59 L 47 68.5 L 48.5 69 Q 49.7 71.2 54.5 70 L 59.5 66 L 62.5 66 L 64 68.5 L 62 74 L 36.5 74 L 35 72.5 L 38 68.5 L 38 47.5 L 35 42 L 37.5 41 Z " /><path fill="rgb(255,255,255)" stroke="rgb(255,255,255)" stroke-width="1" opacity="0.7529411764705882" d="M 98.5 41 Q 106.7 39.9 110 42 Q 111 46.3 108 45.5 L 108 54 L 120 54 L 120 47.5 L 119 45 Q 115.7 46.1 117 42 Q 120.3 39.9 128.5 41 L 131 42 Q 132 46.3 129 45.5 L 129 69.5 L 131 72.5 L 129.5 74 L 118.5 74 L 117 71.5 L 120 67.5 L 120 58 L 108 58 L 108 69.5 L 110 72.5 L 108.5 74 L 97.5 74 L 96 71.5 L 99 67.5 L 99 47.5 L 98 45 Q 94.7 46.1 96 42 L 98.5 41 Z " /><path fill="rgb(255,255,255)" stroke="rgb(255,255,255)" stroke-width="1" opacity="0.7529411764705882" d="M 134.5 41 L 155.5 41 L 158 42 L 158.5 44 L 159 42 Q 162.5 40.3 169.5 41 Q 178.2 48.3 183.5 59 L 184 46.5 L 181 42 L 189.5 41 L 192 42 Q 193.5 45.7 190.5 45 L 189 46.5 L 189 72.5 L 187.5 74 Q 183 75 182 72.5 L 167.5 52 L 167 67.5 L 168 70 Q 171 68.8 170 72.5 Q 168.3 75.8 161.5 74 L 159.5 71 L 157.5 74 L 133.5 74 L 132 72.5 L 132 70 L 134 69.5 L 134 46.5 Q 131.3 45.4 132 42 L 134.5 41 Z M 159 45 L 158 49 Q 153 50 153 46 L 145 46 L 143 48 L 143 54 L 151 54 L 152 53 L 155 53 L 155 60 L 152 59 L 143 59 L 143 68 L 147 70 Q 155 71 157 66 L 160 66 L 160 70 L 162 70 L 163 69 L 163 48 L 159 45 Z " /><path fill="rgb(255,255,255)" stroke="rgb(255,255,255)" stroke-width="1" opacity="0.7529411764705882" d="M 194.5 41 L 204.5 41 L 206 42.5 L 204 46.5 L 204 68.5 L 207 72.5 L 205.5 74 L 194.5 74 L 193 71.5 L 195 69.5 L 195 46.5 L 193 42.5 L 194.5 41 Z " /><path fill="rgb(255,255,255)" stroke="rgb(255,255,255)" stroke-width="1" opacity="0.7529411764705882" d="M 224.5 41 L 231.5 42 L 239 47.5 Q 243.5 52 242 62.5 L 235.5 72 L 232 73.5 L 240.5 74 L 242 75.5 Q 243.5 79.9 240.5 79 Q 238.7 81.7 232.5 80 L 226.5 75 Q 219.1 75.9 215.5 73 L 210 67.5 Q 206.3 63.2 208 53.5 L 213.5 45 L 224.5 41 Z M 223 46 Q 218 49 217 55 L 218 66 L 223 70 L 223 66 L 227 64 L 229 70 L 233 63 Q 234 54 231 50 Q 230 45 223 46 Z " /><path fill="rgb(255,255,255)" stroke="rgb(255,255,255)" stroke-width="1" opacity="0.7529411764705882" d="M 245.5 41 Q 253.7 39.9 257 42 Q 258 46.3 255 45.5 L 255 65.5 Q 256.5 70.5 264.5 69 L 267 68 Q 270.7 60.6 269 46.5 L 266 45 Q 264.3 40.9 268.5 42 L 273.5 41 L 276 42 Q 277.5 45.7 274.5 45 L 273 46.5 L 273 66.5 L 268.5 72 Q 264.5 75 256.5 74 Q 249.9 73.1 247 68.5 L 246 65.5 L 246 46.5 L 243 43.5 L 245.5 41 Z " /><path fill="rgb(255,255,255)" stroke="rgb(255,255,255)" stroke-width="1" opacity="0.7529411764705882" d="M 279.5 41 L 300.5 41 L 304 43.5 Q 305 48 302.5 49 Q 298 49.5 297.5 46 L 289.5 46 L 288 47.5 L 288 54 L 300 53 L 300 60 L 297.5 60 L 296.5 59 L 288 59 Q 287 65.9 289 69 Q 291.1 70.6 296.5 70 L 301.5 66 L 305 66 L 304 74 L 278.5 74 L 277 72.5 L 279 69.5 L 279 46.5 Q 276.3 45.4 277 42 L 279.5 41 Z " /><path fill="rgb(255,255,255)" stroke="rgb(255,255,255)" stroke-width="1" opacity="0.7529411764705882" d="M 76.5 42 Q 89.3 39.7 94 45.5 L 95 51.5 Q 93.8 54 90 53 Q 89.6 48.3 85.5 46 Q 79 45 77 48.5 Q 72.7 52.7 74 62.5 L 78.5 70 L 85.5 71 L 91.5 66 L 95 66 Q 96 72.4 90.5 74 Q 86.1 77.1 77.5 76 Q 70.3 74.2 67 68.5 Q 63.3 64.2 65 54.5 Q 67.3 47.8 72.5 44 L 76.5 42 Z " /><path fill="rgb(255,255,255)" stroke="rgb(255,255,255)" stroke-width="1" opacity="0.7529411764705882" d="M 44 81 L 48 82.5 L 48.5 86 L 51 81 L 55 81 L 55 82.5 L 52 88.5 L 53 91 L 48.5 90 L 42 91 Q 44.9 87.8 44 81 Z " /><path fill="rgb(255,255,255)" stroke="rgb(255,255,255)" stroke-width="1" opacity="0.7529411764705882" d="M 78.5 81 Q 81.1 80.2 80 83.5 L 83.5 83 L 86 84.5 L 85 87.5 L 87 88 Q 88.1 90.7 85.5 90 Q 84.3 92.3 83 89.5 L 82.5 87 L 81 91 Q 78.3 92.1 79 89.5 L 80 85.5 L 78 84.5 L 77 87.5 L 78 89.5 L 75.5 91 L 73.5 90 L 70 91 L 69 84.5 L 73 83 L 72 88.5 L 75 86.5 L 75 84 Q 77.7 85.1 77 82.5 L 78.5 81 Z " /><path fill="rgb(255,255,255)" stroke="rgb(255,255,255)" stroke-width="1" opacity="0.7529411764705882" d="M 103 81 L 106 82.5 L 105 84.5 L 107.5 83 L 111 84 L 112 89.5 L 109.5 91 L 107.5 91 L 104.5 90 Q 103.3 92.3 102 89.5 Q 103.5 85.1 100.5 86 L 97.5 91 Q 95.3 91.8 96 89.5 L 97 85.5 L 96.5 84 L 101.5 83 L 103 83.5 L 103 81 Z M 109 85 L 107 87 L 108 89 L 109 87 L 109 85 Z " /><path fill="rgb(255,255,255)" stroke="rgb(255,255,255)" stroke-width="1" opacity="0.7529411764705882" d="M 150.5 81 Q 153.1 80.2 152 83.5 L 151 88.5 Q 153.3 89.8 150.5 91 Q 147.8 91.6 149 85.5 L 150 83.5 Q 147.7 82.3 150.5 81 Z " /><path fill="rgb(255,255,255)" stroke="rgb(255,255,255)" stroke-width="1" opacity="0.7529411764705882" d="M 166 81 L 171.5 84 Q 172.8 81.7 174 84.5 L 175 89.5 L 172.5 91 L 171 88.5 L 172 86.5 L 170 87.5 Q 171.3 92.3 168 91 L 169 85.5 L 166 84 L 167 89.5 L 164 91 L 164 84.5 L 166 81 Z " /><path fill="rgb(255,255,255)" stroke="rgb(255,255,255)" stroke-width="1" opacity="0.7529411764705882" d="M 183.5 81 Q 185.8 80.3 185 82.5 L 186.5 88 L 189 84 Q 192 82.8 191 86.5 L 190.5 88 L 193 87.5 L 192 84 L 195.5 83 L 197.5 84 L 201 81.5 L 202 84.5 L 200 88 Q 203 87 202 90 L 199.5 91 Q 197.5 87 195.5 91 L 190.5 90 L 188.5 90 L 182.5 91 L 180.5 90 L 178.5 91 L 176 90 Q 175 85.3 178.5 84 L 183 83.5 Q 180.8 82.3 183.5 81 Z M 179 86 L 179 89 L 182 87 L 179 86 Z M 194 88 L 194 89 L 196 89 L 194 88 Z " /><path fill="rgb(255,255,255)" stroke="rgb(255,255,255)" stroke-width="1" opacity="0.7529411764705882" d="M 211.5 81 L 213.5 84 L 215.5 83 L 219 84.5 L 218 87.5 L 219 89.5 L 216.5 91 L 214.5 91 L 211.5 90 Q 210.2 92.3 209 89.5 L 210 85.5 L 208.5 86 L 206 87.5 L 204.5 91 L 203 84.5 L 206.5 83 L 210 83.5 L 211.5 81 Z M 216 85 L 214 89 L 216 88 L 216 85 Z " /><path fill="rgb(255,255,255)" stroke="rgb(255,255,255)" stroke-width="1" opacity="0.7529411764705882" d="M 248 81 L 251 82.5 Q 251.7 85.5 248 84 L 248 88.5 Q 250.3 89.8 247.5 91 L 245.5 90 L 243 91 L 242.5 86 L 241 91 Q 238 92.3 239 88.5 L 240 85.5 L 239.5 84 L 241.5 83 L 243.5 83 Q 245.8 82.3 245 84.5 L 248 82.5 L 248 81 Z " /><path fill="rgb(255,255,255)" stroke="rgb(255,255,255)" stroke-width="1" opacity="0.7529411764705882" d="M 254.5 81 Q 260.8 78.8 259 84.5 L 261.5 83 L 265.5 85 L 268.5 83 L 271 84 L 272 90 L 269.5 91 L 267.5 91 L 262.5 90 L 260.5 91 Q 259 88.5 257.5 92 L 255 90.5 L 256 86 Q 253 84.8 254 88.5 L 250.5 95 Q 246.8 96 248 93 L 251 91.5 L 252 86.5 Q 249.5 85 253 83.5 L 254.5 81 Z M 256 83 Q 254 86 257 85 L 256 83 Z M 263 85 L 261 89 L 264 88 L 263 85 Z M 269 85 L 267 88 L 269 87 L 269 85 Z " /><path fill="rgb(255,255,255)" stroke="rgb(255,255,255)" stroke-width="1" opacity="0.7529411764705882" d="M 280.5 81 L 283.5 83 L 286 84 Q 287.3 88.6 284.5 90 L 279.5 91 L 277.5 90 L 274.5 91 Q 272.3 90.3 273 86.5 Q 274.3 83.3 279 83.5 L 278.5 82 L 280.5 81 Z M 282 85 L 281 88 Q 283 91 284 88 Q 285 84 282 85 Z M 277 86 L 275 89 L 279 87 L 277 86 Z " /><path fill="rgb(255,255,255)" stroke="rgb(255,255,255)" stroke-width="1" opacity="0.7529411764705882" d="M 57.5 83 L 61.5 85 L 64.5 83 L 68 84 L 66 90.5 L 67 93 L 63 93 L 63 91.5 L 63.5 90 L 59.5 91 L 57.5 90 L 55.5 91 Q 53.3 90.3 54 86.5 L 55 84 L 57.5 83 Z M 57 85 L 56 88 L 57 89 L 59 86 L 57 85 Z M 65 85 L 63 88 L 65 87 L 65 85 Z " /><path fill="rgb(255,255,255)" stroke="rgb(255,255,255)" stroke-width="1" opacity="0.7529411764705882" d="M 90.5 83 L 95 84.5 L 94 87.5 L 95 89.5 L 92.5 91 L 90.5 91 L 88 89.5 Q 87 84 90.5 83 Z M 92 85 L 90 89 L 92 88 L 92 85 Z " /><path fill="rgb(255,255,255)" stroke="rgb(255,255,255)" stroke-width="1" opacity="0.7529411764705882" d="M 119.5 83 L 121.5 83 L 124.5 85 L 127.5 83 L 130 84 L 131 89.5 L 128.5 91 L 126.5 91 L 123.5 89 L 119 90.5 L 120 93 L 115 93 L 115 91 Q 118.3 92.3 117 87.5 L 118 85.5 L 117.5 84 L 119.5 83 Z M 122 85 L 120 87 Q 119 89 122 88 L 122 85 Z M 128 85 L 126 87 L 127 89 L 128 87 L 128 85 Z " /><path fill="rgb(255,255,255)" stroke="rgb(255,255,255)" stroke-width="1" opacity="0.7529411764705882" d="M 133.5 83 L 138.5 84 L 140.5 83 L 143 84 L 142 87.5 L 143 89.5 Q 141.8 92.3 140.5 90 L 137.5 91 L 135.5 86 L 134 91 Q 130.7 92.3 132 87.5 L 133 85.5 Q 130.8 84.3 133.5 83 Z M 139 85 L 138 88 L 139 89 L 141 86 L 139 85 Z " /><path fill="rgb(255,255,255)" stroke="rgb(255,255,255)" stroke-width="1" opacity="0.7529411764705882" d="M 156.5 83 L 160 84 L 159 87.5 L 160 89.5 Q 158.8 92.3 157.5 90 L 154.5 91 Q 152 90 153 85.5 L 156.5 83 Z M 157 85 L 155 89 L 157 88 L 157 85 Z " /><path fill="rgb(255,255,255)" stroke="rgb(255,255,255)" stroke-width="1" opacity="0.7529411764705882" d="M 224.5 83 L 226.5 83 L 230 85.5 L 227.5 90 L 224 90.5 L 225 93 L 220 93 L 220 91 Q 223.3 92.3 222 87.5 L 223 85.5 L 222.5 84 L 224.5 83 Z M 227 85 L 225 89 L 227 88 L 227 85 Z " /><path fill="rgb(255,255,255)" stroke="rgb(255,255,255)" stroke-width="1" opacity="0.7529411764705882" d="M 233.5 83 L 237 84 L 238 89.5 L 235.5 91 L 233.5 91 L 231 89.5 Q 230 84 233.5 83 Z M 235 85 L 233 89 L 235 88 L 235 85 Z " /><path fill="rgb(255,255,255)" stroke="rgb(255,255,255)" stroke-width="1" opacity="0.7529411764705882" d="M 289.5 83 L 293.5 84 L 295.5 83 L 298 84 L 299 89.5 L 296.5 91 L 294.5 91 L 292 89.5 L 291.5 86 L 288.5 91 L 288 84.5 L 289.5 83 Z M 296 85 L 294 89 L 296 88 L 296 85 Z " /></svg>